<svg xmlns="http://www.w3.org/2000/svg" viewBox="0 0 24 24" width="256" height="256" fill="none" stroke="#07ad94" stroke-width="2" stroke-linejoin="round" stroke-linecap="round"><path d="m11.801 6.49 1.486-1.486c1.673-1.673 3.862-2.367 6.18-2.48.902-.044 1.352-.066 1.714.295.361.362.34.812.295 1.714-.113 2.318-.807 4.507-2.48 6.18L17.511 12.2c-1.224 1.223-1.572 1.571-1.315 2.898.254 1.014.499 1.995-.238 2.732-.894.895-1.71.895-2.604 0l-7.183-7.183c-.895-.894-.895-1.71 0-2.604.737-.737 1.718-.492 2.732-.238 1.327.257 1.675-.091 2.898-1.315m5.195.51h.009M2.5 21.5l5-5m1 5 2-2m-8-4 2-2"/></svg>